# xmcd
#
# Track frame offsets:
# 150
# 17346
# 36433
# 55147
# 74323
# 91395
# 109523
# 127851
# 146742
# 164243
# 184866
# 204707
# 223189
# 240740
# 254748
# 274075
#
# Disc length: 3871 seconds
#
#
# Revision: 0
# Processed by: cddbd v1.5PL3 Copyright (c) Steve Scherf et al.
# Submitted via: FreeRIP 2.60 
#
DISCID=f60f1d10
DTITLE=環球世紀合唱歌 disc 2
DYEAR=1900
DGENRE=Pop
TTITLE0=永不放棄 - 張學友, 黎明
TTITLE1=明天你是否依然愛找 - 譚詠麟, 關淑怡
TTITLE2=萬千寵愛在一身 - 李克勤, 周慧敦
TTITLE3=今生註定 - 王馨平, 高明駿
TTITLE4=Miracle - 張國榮, 麥潔文
TTITLE5=真愛在明天 - 周慧敏, 黎明
TTITLE6=愛一次便夠 - 黎瑞恩, 蔡一傑
TTITLE7=相思風雨中 - 張學友, 湯寶如
TTITLE8=秋意中等我 - 劉德華, 吳婉芳
TTITLE9=So sad - 關淑怡, 草蜢
TTITLE10=一起真的不易 - 蘇永康, 湯寶如
TTITLE11=流言 - 周慧敏, 林隆璇
TTITLE12=依然相愛 - 李克勤, 關淑怡
TTITLE13=愛是這樣甜 - 鍾鎮濤, 彭健新
TTITLE14=男人心 - 周慧敏, 關淑怡
TTITLE15=長流不息 - 張學友, 黎瑞恩
EXTD=
EXTT0=
EXTT1=
EXTT2=
EXTT3=
EXTT4=
EXTT5=
EXTT6=
EXTT7=
EXTT8=
EXTT9=
EXTT10=
EXTT11=
EXTT12=
EXTT13=
EXTT14=
EXTT15=
PLAYORDER=
